<?xml version="1.0" encoding="UTF-8" standalone="no"?>
<!DOCTYPE svg PUBLIC "-//W3C//DTD SVG 20010904//EN"
              "http://www.w3.org/TR/2001/REC-SVG-20010904/DTD/svg10.dtd">

<svg xmlns="http://www.w3.org/2000/svg"
     width="0.296667in" height="0.3in"
     viewBox="0 0 89 90">
  <path id="Selection"
        fill="#263238" stroke="#263238" stroke-width="1"
        d="M 10.00,0.00
           C 10.00,0.00 6.17,25.61 6.17,25.61
             6.17,25.61 3.91,49.76 3.91,49.76
             3.91,49.76 3.00,57.07 3.00,57.07
             3.00,57.07 2.00,69.51 2.00,69.51
             2.00,69.51 1.00,90.00 1.00,90.00
             1.00,90.00 18.00,90.00 18.00,90.00
             18.00,90.00 18.00,75.37 18.00,75.37
             18.00,75.37 19.00,64.39 19.00,64.39
             19.00,64.39 19.00,43.90 19.00,43.90
             19.00,43.90 20.00,32.20 20.00,32.20
             20.00,32.20 20.00,18.29 20.00,18.29
             20.00,18.29 30.67,41.71 30.67,41.71
             33.90,48.81 37.98,55.36 38.00,62.93
             38.00,62.93 38.00,90.00 38.00,90.00
             38.00,90.00 52.00,90.00 52.00,90.00
             52.00,90.00 52.00,62.93 52.00,62.93
             52.02,56.12 54.45,53.16 57.33,46.83
             57.33,46.83 69.00,18.29 69.00,18.29
             69.00,18.29 70.00,26.34 70.00,26.34
             70.00,26.34 71.00,37.32 71.00,37.32
             71.00,37.32 71.00,47.56 71.00,47.56
             71.00,47.56 71.00,60.73 71.00,60.73
             71.00,60.73 72.00,71.71 72.00,71.71
             72.00,71.71 72.00,90.00 72.00,90.00
             72.00,90.00 89.00,90.00 89.00,90.00
             89.00,90.00 88.00,75.37 88.00,75.37
             88.00,75.37 87.00,55.61 87.00,55.61
             87.00,55.61 86.00,44.63 86.00,44.63
             86.00,44.63 83.72,20.49 83.72,20.49
             83.72,20.49 81.42,6.59 81.42,6.59
             81.17,5.22 81.06,2.17 79.98,1.17
             78.63,-0.07 75.95,0.03 74.00,0.00
             71.17,-0.03 65.90,-0.37 63.84,1.17
             62.26,2.35 58.94,11.01 58.02,13.17
             58.02,13.17 45.00,43.17 45.00,43.17
             45.00,43.17 32.58,13.90 32.58,13.90
             32.58,13.90 27.00,0.00 27.00,0.00
             27.00,0.00 10.00,0.00 10.00,0.00 Z" />
</svg>
